<?xml version="1.0" standalone="no"?>
<!DOCTYPE svg PUBLIC "-//W3C//DTD SVG 20010904//EN"
 "http://www.w3.org/TR/2001/REC-SVG-20010904/DTD/svg10.dtd">
<svg version="1.0" xmlns="http://www.w3.org/2000/svg"
 width="1500.000000pt" height="1500.000000pt" viewBox="0 0 1500.000000 1500.000000"
 preserveAspectRatio="xMidYMid meet">
<metadata>
Created by potrace 1.10, written by Peter Selinger 2001-2011
</metadata>
<g transform="translate(0.000000,1500.000000) scale(0.100000,-0.100000)"
fill="#000000" stroke="none">
<path d="M6519 12798 c-15 -6 -19 -13 -14 -29 4 -12 8 -143 9 -293 l3 -271 36
-3 c24 -2 39 1 42 10 2 7 1 63 -3 125 -4 62 -6 117 -4 123 2 6 35 10 76 10
102 0 115 -12 156 -142 18 -57 37 -109 42 -115 13 -16 64 -17 73 -3 4 6 -8 51
-25 101 -42 122 -49 136 -77 154 -12 9 -23 19 -23 23 0 5 20 22 44 39 57 40
75 90 57 155 -14 49 -33 74 -76 103 -26 17 -48 19 -163 20 -73 0 -142 -3 -153
-7z m271 -75 c36 -24 40 -32 40 -90 0 -45 -3 -54 -27 -71 -36 -25 -197 -40
-209 -20 -8 13 -6 177 3 190 2 5 41 8 86 8 61 0 89 -4 107 -17z"/>
<path d="M6298 12794 c-3 -3 -63 -11 -133 -18 -70 -8 -131 -18 -137 -24 -8 -8
-6 -45 5 -129 18 -126 47 -393 47 -430 0 -30 31 -46 64 -33 28 10 34 39 16 84
-5 14 -12 59 -16 101 -5 61 -4 79 7 86 8 5 58 9 111 9 104 0 132 12 126 53 -5
32 -32 43 -70 30 -18 -7 -69 -15 -114 -19 l-81 -7 -7 74 c-4 41 -9 81 -11 89
-10 34 11 43 125 51 153 11 166 17 153 68 -4 17 -13 21 -42 21 -21 0 -40 -3
-43 -6z"/>
<path d="M7086 12783 c-3 -10 -10 -97 -16 -193 -5 -96 -15 -218 -21 -271 -7
-53 -9 -104 -6 -113 9 -22 73 -22 81 0 3 9 6 48 6 87 0 75 26 387 36 445 4 19
1 38 -6 47 -18 21 -67 19 -74 -2z"/>
<path d="M7361 12756 c-11 -13 -25 -95 -51 -295 -5 -40 -14 -88 -19 -105 -6
-17 -11 -65 -13 -106 l-3 -75 150 -27 c185 -33 212 -34 220 -9 8 26 -3 48 -28
54 -12 3 -69 11 -127 17 -130 14 -144 21 -135 63 4 18 10 60 14 94 4 34 10 65
13 69 4 3 58 -4 120 -17 63 -12 122 -20 131 -16 22 8 23 63 1 71 -9 3 -34 6
-57 7 -23 0 -73 6 -112 13 -79 14 -73 3 -59 118 4 32 13 63 20 69 14 11 49 6
201 -28 81 -18 103 -11 103 33 0 30 -8 34 -93 45 -171 23 -213 29 -238 35 -16
4 -30 0 -38 -10z"/>
<path d="M5580 12676 c-36 -13 -94 -31 -130 -40 -36 -10 -78 -21 -95 -26 -16
-5 -47 -12 -68 -16 -44 -7 -51 -16 -42 -51 6 -24 9 -25 55 -20 27 3 60 13 74
22 14 9 35 15 48 13 24 -3 39 -51 124 -400 l27 -108 31 0 c36 0 64 33 47 54
-5 6 -14 30 -20 51 -19 80 -99 361 -110 389 -7 16 -8 32 -4 36 7 6 61 19 151
36 20 4 23 10 20 42 -4 46 -19 49 -108 18z"/>
<path d="M7869 12653 c-6 -16 -14 -46 -19 -68 -4 -22 -13 -55 -19 -72 -22 -65
-33 -99 -46 -146 -8 -26 -21 -71 -30 -100 -9 -28 -20 -65 -25 -82 -5 -16 -12
-40 -15 -52 -6 -17 -1 -25 26 -38 31 -16 33 -16 46 1 7 10 13 25 13 33 0 8 4
28 9 45 17 59 41 141 56 199 35 131 46 167 55 167 14 0 19 -13 36 -97 14 -72
61 -239 86 -308 6 -16 13 -46 16 -65 8 -55 29 -80 67 -80 36 0 38 2 54 80 11
53 92 330 121 414 24 69 15 89 -34 84 l-31 -3 -42 -175 c-24 -96 -45 -187 -48
-202 -4 -19 -12 -28 -24 -28 -20 0 -31 19 -31 53 0 12 -6 42 -14 67 -8 25 -22
72 -32 105 -9 33 -27 94 -40 135 -13 41 -24 83 -24 93 0 26 -45 67 -75 67 -19
0 -28 -7 -36 -27z"/>
<path d="M5120 12543 c-8 -3 -28 -11 -45 -19 -75 -32 -203 -82 -227 -88 -23
-5 -28 -12 -28 -35 0 -16 6 -42 14 -58 18 -36 40 -86 61 -143 10 -25 21 -54
25 -65 30 -78 80 -214 85 -232 13 -47 29 -48 128 -9 50 21 108 43 127 51 108
40 122 48 116 69 -3 12 -6 24 -6 27 0 15 -34 19 -54 6 -12 -7 -48 -23 -81 -36
-33 -13 -79 -32 -102 -43 -24 -11 -48 -18 -54 -16 -15 5 -80 169 -74 188 3 9
38 26 82 39 140 44 153 51 153 82 0 44 -34 47 -116 9 -38 -18 -84 -39 -101
-47 -44 -20 -57 -13 -73 38 -7 24 -19 54 -27 67 -30 49 -17 60 122 106 112 38
130 47 133 67 2 14 -3 28 -14 36 -19 14 -21 14 -44 6z"/>
<path d="M8506 12464 c-9 -8 -16 -20 -16 -25 0 -8 -94 -234 -120 -288 -4 -9
-14 -32 -22 -51 -9 -19 -28 -60 -44 -91 -15 -31 -25 -62 -22 -70 3 -8 57 -37
119 -63 100 -43 123 -49 189 -50 63 -1 81 3 115 24 57 35 87 71 128 155 33 67
37 82 37 155 0 67 -4 86 -24 118 -34 54 -90 100 -160 132 -34 15 -82 37 -108
49 -56 25 -53 25 -72 5z m153 -120 c86 -47 116 -76 131 -127 29 -107 -64 -291
-160 -317 -44 -12 -93 -3 -185 33 -35 13 -61 30 -63 40 -2 9 17 58 42 110 39
81 100 225 119 280 10 26 44 21 116 -19z"/>
<path d="M4619 12333 c-25 -32 -39 -62 -39 -85 0 -13 -7 -43 -15 -68 -8 -25
-22 -79 -32 -120 -12 -49 -23 -75 -32 -75 -9 0 -33 43 -61 105 -43 98 -48 105
-74 105 -16 0 -34 -7 -40 -17 -11 -18 -7 -29 60 -148 20 -36 74 -140 121 -232
46 -93 88 -168 91 -168 4 0 20 10 36 23 31 25 31 27 -24 112 -11 17 -23 37
-27 45 -4 8 -14 26 -24 40 -10 14 -20 35 -24 48 -5 18 -2 22 15 22 11 0 39 -9
61 -21 65 -33 230 -91 275 -96 30 -3 45 0 57 12 20 19 22 44 5 49 -7 2 -74 23
-148 46 -74 24 -150 46 -169 49 -47 8 -60 32 -40 73 9 18 24 60 34 93 9 33 28
92 41 131 13 39 24 76 24 82 0 19 -55 14 -71 -5z"/>
<path d="M9092 12169 c-22 -41 -170 -296 -193 -334 -11 -16 -22 -37 -26 -45
-3 -8 -19 -31 -35 -51 -35 -45 -35 -67 -3 -79 14 -5 82 -44 152 -87 134 -81
158 -86 158 -29 0 24 -11 33 -108 85 -59 31 -112 62 -119 69 -8 8 -5 20 15 46
15 19 27 38 27 42 0 4 6 15 14 23 7 9 28 43 46 76 60 109 130 224 140 230 18
11 11 64 -9 75 -31 16 -41 12 -59 -21z"/>
<path d="M4075 12023 c-37 -7 -130 -79 -159 -123 -24 -35 -30 -56 -34 -117 -4
-69 -2 -78 31 -146 115 -233 327 -285 483 -120 80 85 83 238 5 218 -34 -9 -41
-22 -29 -56 22 -63 -37 -144 -125 -174 -44 -15 -52 -15 -97 0 -57 19 -126 87
-163 161 -48 97 -46 149 10 214 61 71 142 98 191 65 37 -27 78 7 62 51 -11 30
-98 43 -175 27z"/>
<path d="M9466 11958 c-5 -24 -12 -113 -22 -277 l-6 -95 -58 -76 c-31 -41 -65
-81 -74 -89 -21 -18 -20 -50 2 -67 32 -25 50 -15 96 54 77 115 89 125 231 182
72 29 150 60 175 69 50 19 63 44 33 66 -34 26 -51 21 -236 -71 -97 -48 -118
-44 -97 20 6 18 15 68 20 112 5 43 12 93 16 111 5 26 2 36 -19 57 -32 32 -55
33 -61 4z"/>
<path d="M3559 11616 c-57 -20 -121 -71 -159 -127 -48 -71 -54 -152 -16 -234
35 -76 142 -186 209 -215 115 -50 248 -2 324 117 67 105 52 209 -47 326 -102
122 -212 169 -311 133z m113 -77 c51 -14 150 -107 182 -171 28 -55 33 -115 15
-151 -17 -33 -70 -87 -103 -104 -38 -20 -106 -19 -147 2 -46 24 -133 113 -158
163 -43 84 -22 168 57 230 53 42 90 49 154 31z"/>
<path d="M10025 11364 c-59 -21 -146 -94 -188 -157 -94 -141 -61 -296 82 -388
49 -32 120 -39 180 -18 31 11 50 46 36 68 -8 14 -62 14 -70 1 -10 -16 -73 -11
-103 8 -96 62 -128 159 -81 247 27 52 104 130 152 155 24 13 57 20 91 20 61 0
101 -22 150 -83 27 -34 31 -46 29 -95 -2 -60 8 -82 38 -82 42 0 62 78 36 145
-29 76 -121 166 -188 185 -47 14 -117 11 -164 -6z"/>
<path d="M3125 11190 c-83 -38 -266 -250 -215 -250 13 0 295 -240 387 -329 23
-23 47 -41 52 -41 14 0 51 41 51 56 0 7 -38 41 -85 76 -46 35 -84 69 -85 76 0
8 27 43 60 79 75 82 98 137 81 194 -16 53 -73 114 -129 139 -54 24 -65 24
-117 0z m140 -110 c43 -43 43 -105 -1 -152 -17 -18 -41 -48 -53 -65 -12 -18
-29 -33 -37 -33 -15 0 -174 137 -174 150 0 14 131 136 152 141 35 9 79 -7 113
-41z"/>
<path d="M6555 10699 c3 -282 9 -517 11 -521 9 -14 42 -9 48 8 7 19 6 571 -3
829 l-6 190 -28 3 -28 3 6 -512z"/>
<path d="M7154 10898 c-10 -13 -32 -63 -48 -113 -33 -104 -38 -117 -60 -168
-9 -21 -16 -46 -16 -57 0 -10 -4 -21 -9 -25 -5 -3 -12 -19 -16 -36 -4 -17 -13
-42 -21 -57 -8 -15 -14 -37 -14 -49 0 -13 -4 -23 -10 -23 -5 0 -10 -8 -10 -17
0 -10 -7 -31 -15 -47 -8 -15 -15 -33 -15 -38 0 -11 -23 -66 -46 -111 -22 -44
-18 -59 13 -55 25 3 30 11 52 78 13 41 30 89 38 107 7 17 13 37 13 45 0 7 7
22 15 32 8 11 15 28 15 39 0 10 7 25 15 33 8 9 15 25 15 37 0 12 7 31 15 41 8
11 15 30 15 43 0 13 5 23 10 23 6 0 10 8 10 18 1 9 9 35 20 57 11 22 19 46 20
53 0 7 4 20 9 30 14 25 61 149 61 160 0 8 -22 22 -34 22 -1 0 -11 -10 -22 -22z"/>
<path d="M10560 10881 c-130 -44 -467 -150 -492 -156 -34 -7 -38 -43 -8 -70
19 -17 22 -17 62 -1 24 10 58 25 75 33 39 19 48 13 96 -56 17 -25 45 -63 63
-85 38 -44 36 -50 -22 -123 -33 -40 -40 -65 -28 -97 9 -24 51 -20 65 7 11 20
125 193 261 396 32 48 58 91 58 97 0 14 -54 74 -67 74 -4 -1 -33 -9 -63 -19z
m30 -85 c0 -7 -22 -42 -48 -77 -27 -35 -61 -83 -75 -106 -15 -24 -33 -43 -40
-43 -12 0 -117 133 -117 149 0 4 26 16 58 25 31 8 91 29 132 45 76 29 90 30
90 7z"/>
<path d="M5930 10832 c0 -15 4 -32 8 -37 7 -8 30 -62 93 -210 24 -60 52 -124
64 -150 7 -16 18 -41 23 -55 6 -14 23 -52 38 -85 15 -33 39 -89 54 -125 16
-42 32 -66 44 -68 39 -8 37 15 -7 109 -24 52 -52 112 -61 134 -10 22 -21 49
-26 60 -5 11 -27 70 -48 131 -43 120 -116 278 -140 307 -23 26 -42 21 -42 -11z"/>
<path d="M6904 10726 c-7 -19 13 -56 31 -56 18 0 38 37 31 56 -3 8 -17 14 -31
14 -14 0 -28 -6 -31 -14z"/>
<path d="M7590 10456 c-289 -287 -470 -480 -470 -500 0 -10 9 -16 24 -16 16 0
41 21 86 73 34 39 191 199 347 354 280 277 309 313 255 313 -10 0 -115 -96
-242 -224z"/>
<path d="M6725 10650 c-14 -15 -20 -46 -26 -137 -10 -139 -24 -272 -33 -300
-3 -11 1 -28 9 -39 15 -19 15 -19 30 0 9 12 15 41 15 74 0 29 5 62 10 72 6 11
13 70 16 132 3 62 10 122 16 134 12 25 7 76 -8 81 -6 2 -19 -6 -29 -17z"/>
<path d="M2605 10548 c-33 -56 -74 -123 -92 -149 -29 -43 -30 -48 -17 -68 8
-11 19 -21 24 -21 14 0 219 -125 373 -228 47 -31 86 -50 96 -47 9 3 30 28 46
57 17 28 37 61 45 74 8 12 30 47 48 78 18 30 37 58 43 61 17 11 10 63 -10 70
-28 9 -45 -2 -66 -43 -11 -20 -39 -70 -62 -110 -24 -40 -43 -77 -43 -82 0 -19
-37 -10 -77 19 -22 16 -54 36 -72 45 -18 10 -35 24 -38 32 -4 12 34 75 122
200 14 20 -6 48 -38 52 -22 3 -30 -7 -75 -90 -77 -142 -66 -135 -141 -89 -104
65 -103 52 -16 185 42 64 75 124 73 134 -2 11 -14 18 -33 20 -28 2 -34 -4 -90
-100z"/>
<path d="M6165 10640 c-9 -15 4 -50 19 -50 23 0 49 27 43 44 -7 18 -52 22 -62
6z"/>
<path d="M6878 10624 c-10 -22 -10 -28 5 -39 10 -7 27 -11 37 -8 26 7 26 49 1
63 -27 14 -30 13 -43 -16z"/>
<path d="M6380 10620 c-13 -24 -9 -118 7 -142 4 -7 14 -51 21 -98 19 -131 22
-153 28 -187 3 -24 10 -33 24 -33 10 0 21 4 24 9 8 12 -14 184 -25 196 -5 5
-9 32 -9 60 0 27 -7 71 -15 98 -8 26 -12 53 -9 61 3 7 -4 23 -14 36 l-19 24
-13 -24z"/>
<path d="M5337 10613 c-13 -12 -7 -30 16 -54 29 -30 501 -486 583 -562 35 -33
70 -57 82 -57 44 0 24 34 -69 113 -24 22 -154 148 -289 281 -281 278 -304 298
-323 279z"/>
<path d="M6197 10563 c-6 -32 5 -48 27 -40 19 7 21 38 4 55 -18 18 -25 15 -31
-15z"/>
<path d="M10850 10518 c-64 -41 -75 -47 -90 -55 -15 -7 -200 -114 -230 -133
-8 -5 -44 -24 -79 -42 -35 -18 -66 -39 -68 -46 -8 -20 14 -62 33 -62 15 0 94
46 293 172 89 56 121 72 129 64 2 -3 -27 -58 -65 -123 -38 -65 -91 -161 -117
-213 -27 -52 -57 -110 -68 -128 -23 -38 -18 -76 13 -93 18 -9 28 -6 63 18 22
16 97 60 166 98 69 38 152 85 186 106 33 20 70 40 82 43 27 9 29 46 4 69 -10
10 -22 17 -25 17 -4 0 -33 -17 -65 -39 -31 -21 -73 -47 -91 -57 -19 -10 -71
-43 -114 -71 -44 -29 -86 -53 -94 -53 -22 0 -15 36 16 82 33 50 62 102 138
248 31 58 59 109 64 115 15 15 10 45 -12 76 -24 35 -25 35 -69 7z"/>
<path d="M6847 10488 c-8 -18 -18 -58 -21 -88 -4 -30 -13 -75 -20 -100 -24
-76 -27 -136 -10 -151 9 -7 18 -9 24 -3 10 10 28 76 39 144 4 25 12 61 19 80
16 51 31 134 26 142 -12 19 -43 6 -57 -24z"/>
<path d="M7160 10490 c0 -23 5 -30 19 -30 24 0 45 25 37 45 -3 8 -17 15 -31
15 -21 0 -25 -5 -25 -30z"/>
<path d="M7370 10498 c-11 -13 -33 -43 -47 -68 -25 -43 -34 -55 -59 -83 -51
-58 -224 -303 -224 -318 0 -31 43 -24 68 11 12 16 22 31 22 34 0 10 154 226
169 236 5 3 25 30 46 60 21 30 41 57 44 60 14 11 41 60 41 75 0 22 -36 18 -60
-7z"/>
<path d="M6232 10478 c-16 -16 -15 -40 3 -64 8 -10 15 -30 15 -44 0 -14 6 -36
13 -50 7 -14 19 -52 27 -85 16 -68 36 -105 56 -105 8 0 17 7 21 16 5 15 -33
149 -64 221 -7 17 -13 36 -13 41 0 10 -39 82 -44 82 -1 0 -7 -5 -14 -12z"/>
<path d="M5894 10456 c-8 -22 14 -56 36 -56 22 0 44 34 36 56 -3 8 -19 14 -36
14 -17 0 -33 -6 -36 -14z"/>
<path d="M7128 10423 c-9 -10 -42 -72 -73 -138 -32 -66 -61 -122 -65 -125 -8
-6 -40 -70 -40 -82 0 -4 11 -8 24 -8 20 0 30 11 55 63 32 65 82 155 109 197
39 60 52 94 39 102 -19 12 -33 10 -49 -9z"/>
<path d="M5710 10419 c0 -13 104 -136 203 -242 35 -37 81 -92 103 -122 27 -38
46 -55 62 -55 38 0 25 31 -41 100 -34 36 -93 105 -131 154 -88 113 -151 176
-176 176 -11 0 -20 -5 -20 -11z"/>
<path d="M5964 10366 c-3 -8 13 -44 38 -83 24 -37 47 -75 51 -83 30 -61 98
-151 110 -147 24 7 19 50 -10 91 -16 22 -54 82 -83 131 -29 50 -54 91 -54 91
-1 1 -11 5 -24 8 -15 5 -24 3 -28 -8z"/>
<path d="M7624 10258 c-27 -24 -51 -45 -54 -48 -3 -3 -36 -30 -75 -60 -38 -30
-72 -57 -75 -60 -3 -3 -27 -23 -55 -45 -27 -22 -55 -44 -61 -50 -6 -6 -34 -28
-62 -50 -35 -26 -52 -46 -52 -61 0 -38 17 -37 62 3 24 21 61 52 83 68 22 16
42 31 45 34 15 17 191 160 225 183 76 52 119 94 112 112 -11 27 -42 18 -93
-26z"/>
<path d="M5473 10213 c-6 -16 14 -39 67 -73 21 -14 180 -129 338 -245 61 -45
92 -52 92 -21 0 14 -131 119 -262 211 -233 163 -224 158 -235 128z"/>
<path d="M2415 10149 c-122 -63 -184 -233 -126 -348 31 -60 93 -116 170 -153
60 -30 75 -33 161 -33 78 0 100 4 125 20 119 78 169 227 111 335 -27 50 -65
72 -90 50 -23 -18 -20 -40 12 -73 22 -24 27 -37 27 -82 0 -43 -6 -61 -30 -97
-43 -60 -98 -90 -155 -84 -106 11 -227 83 -266 157 -46 91 39 249 134 249 31
0 47 26 34 55 -15 31 -52 33 -107 4z"/>
<path d="M7674 10036 c-11 -29 1 -51 26 -51 19 0 26 6 28 24 5 35 -42 58 -54
27z"/>
<path d="M5440 10021 c-11 -22 -5 -47 13 -54 21 -8 57 12 57 31 0 40 -51 57
-70 23z"/>
<path d="M5072 10011 c-8 -4 -12 -19 -10 -31 2 -19 16 -27 83 -47 44 -13 95
-30 113 -38 18 -8 41 -15 52 -15 10 0 31 -6 47 -14 15 -8 44 -21 63 -29 31
-14 52 -22 140 -59 14 -5 38 -16 53 -24 16 -8 35 -14 42 -14 7 0 26 -6 42 -14
112 -55 155 -67 169 -44 8 13 -39 58 -62 58 -18 0 -239 85 -284 109 -9 5 -30
12 -48 16 -18 3 -32 10 -32 15 0 5 -14 12 -32 15 -17 4 -38 14 -46 21 -7 8
-22 14 -32 14 -10 0 -21 4 -24 9 -4 5 -24 12 -46 16 -22 4 -42 11 -46 16 -3 5
-15 9 -27 9 -12 0 -35 9 -52 20 -33 22 -44 24 -63 11z"/>
<path d="M8035 10011 c-11 -4 -33 -13 -50 -20 -16 -7 -41 -18 -55 -23 -14 -5
-38 -16 -53 -24 -16 -8 -33 -14 -39 -14 -10 0 -48 -15 -124 -51 -23 -10 -48
-19 -57 -19 -9 0 -19 -4 -22 -10 -3 -5 -14 -10 -24 -10 -10 0 -24 -7 -31 -15
-7 -8 -20 -15 -29 -15 -10 0 -54 -16 -98 -35 -45 -19 -88 -35 -97 -35 -23 0
-57 -37 -50 -55 4 -8 10 -15 15 -15 10 0 174 62 224 85 17 7 48 21 70 30 73
30 90 37 120 51 17 7 42 16 58 20 15 3 27 10 27 14 0 4 12 10 28 13 28 5 205
64 232 77 8 4 16 19 18 34 3 22 0 26 -20 25 -13 -1 -32 -4 -43 -8z"/>
<path d="M11148 10009 c-27 -15 -22 -44 18 -116 31 -54 34 -67 23 -77 -8 -7
-63 -32 -124 -56 -105 -41 -346 -141 -353 -146 -9 -6 21 -74 31 -74 7 0 34 11
62 24 82 40 163 76 170 76 4 0 21 6 38 14 172 79 206 93 216 87 6 -4 22 -38
36 -76 29 -82 36 -89 69 -81 36 9 34 37 -12 126 -21 41 -55 122 -77 180 -33
92 -56 131 -74 130 -3 0 -14 -5 -23 -11z"/>
<path d="M7593 9994 c-7 -20 8 -48 29 -52 19 -4 29 19 21 47 -6 25 -41 28 -50
5z"/>
<path d="M5535 9970 c-11 -17 14 -38 84 -74 36 -18 104 -54 151 -80 95 -53
135 -63 135 -32 0 15 -26 34 -100 73 -55 29 -110 57 -122 63 -12 5 -40 21 -62
35 -43 26 -75 32 -86 15z"/>
<path d="M7480 9923 c-25 -14 -79 -43 -121 -64 -80 -41 -115 -71 -104 -88 8
-15 25 -14 55 3 25 13 146 79 185 100 37 20 55 39 55 58 0 24 -15 22 -70 -9z"/>
<path d="M5287 9754 c-12 -12 -8 -42 9 -59 22 -21 46 -1 42 34 -3 26 -35 41
-51 25z"/>
<path d="M7832 9741 c-8 -5 -12 -21 -10 -37 3 -25 7 -29 33 -29 24 0 31 5 33
24 3 15 -3 30 -14 38 -21 15 -24 16 -42 4z"/>
<path d="M5384 9726 c-10 -27 5 -68 24 -64 24 5 24 71 -1 76 -9 2 -20 -4 -23
-12z"/>
<path d="M7730 9705 c-16 -19 -3 -55 20 -55 21 0 34 38 18 57 -14 17 -23 16
-38 -2z"/>
<path d="M5487 9703 c-11 -11 -8 -22 13 -43 15 -15 33 -20 69 -20 27 0 62 -7
77 -15 16 -8 37 -15 46 -15 9 0 19 -4 22 -9 9 -15 85 -22 108 -10 17 9 18 13
7 24 -21 19 -77 35 -124 35 -22 0 -50 7 -61 15 -10 8 -28 15 -39 15 -11 0 -33
7 -49 15 -30 16 -58 19 -69 8z"/>
<path d="M7573 9669 c-6 -6 -40 -15 -75 -20 -88 -11 -157 -25 -164 -32 -4 -3
-4 -13 -1 -22 7 -17 47 -19 117 -5 25 5 68 13 96 19 57 10 126 41 128 56 1 14
-87 18 -101 4z"/>
<path d="M2147 9571 c-18 -16 -46 -54 -62 -83 -24 -44 -29 -65 -30 -123 0 -59
4 -75 23 -100 35 -44 77 -65 130 -65 70 0 99 23 179 142 24 38 54 75 66 83 57
40 146 -9 147 -81 0 -70 -72 -174 -121 -174 -20 0 -40 -35 -32 -56 2 -6 15
-17 27 -24 20 -10 28 -9 52 6 103 64 157 174 140 287 -13 85 -108 145 -204
130 -42 -7 -106 -69 -152 -148 -42 -72 -85 -99 -131 -83 -60 21 -74 76 -39
152 18 41 70 96 91 96 17 0 9 49 -10 60 -29 15 -37 13 -74 -19z"/>
<path d="M5207 9563 c-4 -3 -7 -12 -7 -20 0 -10 25 -13 108 -13 68 0 127 -6
158 -15 27 -8 74 -15 104 -15 30 0 80 -7 110 -15 78 -21 130 -20 130 3 0 29
-37 43 -128 49 -48 3 -112 12 -142 19 -56 14 -321 20 -333 7z"/>
<path d="M7730 9563 c-8 -2 -24 -8 -35 -13 -11 -5 -56 -11 -100 -14 -188 -13
-226 -18 -235 -36 -5 -10 -6 -20 -3 -24 12 -12 124 -6 160 9 21 9 67 15 113
15 50 0 88 5 109 16 17 8 46 15 64 13 60 -4 87 1 87 15 0 8 -7 17 -16 20 -18
7 -122 7 -144 -1z"/>
<path d="M6635 9513 c-11 -3 -39 -14 -62 -24 -23 -10 -55 -19 -70 -19 -15 -1
-39 -7 -53 -15 -14 -8 -37 -14 -51 -15 -67 -1 -188 -86 -205 -145 -28 -96 -55
-115 -165 -115 -85 0 -138 17 -277 91 -64 34 -130 68 -146 77 -16 8 -37 23
-47 33 -17 17 -15 17 39 11 31 -4 91 -7 132 -7 70 0 75 2 78 22 5 32 -27 37
-186 30 -132 -5 -226 3 -289 25 -26 10 -36 8 -59 -6 -23 -16 -47 -18 -188 -16
-88 2 -167 2 -173 1 -16 -1 -17 -37 -1 -47 7 -4 125 -8 263 -8 l250 -1 80 -39
c43 -21 108 -57 144 -79 232 -141 293 -162 411 -137 47 10 63 10 74 1 12 -10
19 -8 37 13 30 34 59 34 59 1 0 -14 -7 -28 -15 -31 -8 -4 -15 -12 -15 -19 0
-6 -8 -19 -17 -28 -23 -20 -73 -33 -73 -18 0 20 -15 11 -33 -19 -21 -35 -15
-50 35 -95 65 -59 157 -65 240 -15 18 11 42 24 53 29 26 12 115 98 138 134 16
24 23 27 77 27 54 0 167 -29 195 -50 6 -4 26 -11 45 -15 19 -4 58 -21 88 -37
60 -32 57 -30 133 -95 102 -88 113 -98 214 -179 56 -44 126 -94 155 -111 81
-46 97 -65 163 -179 50 -86 77 -153 77 -189 0 -43 -106 -113 -152 -102 -38 10
-148 118 -148 147 0 13 12 43 26 68 37 62 16 74 -44 25 l-43 -36 -36 34 c-19
19 -61 68 -94 110 -32 42 -65 84 -74 93 -21 21 -85 22 -85 1 0 -8 39 -54 88
-103 96 -97 231 -253 252 -292 22 -39 19 -178 -3 -215 -33 -55 -145 -84 -170
-44 -8 13 -5 22 16 42 43 39 28 66 -17 32 -11 -8 -29 -15 -40 -15 -21 0 -84
65 -113 118 -10 17 -21 32 -25 32 -5 0 -8 7 -8 16 0 16 -103 129 -132 145 -9
5 -24 6 -32 3 -28 -11 -17 -39 27 -71 24 -16 56 -52 72 -79 16 -27 35 -55 42
-62 7 -7 13 -16 13 -20 1 -4 23 -31 50 -61 62 -67 67 -83 40 -120 -28 -41 -79
-70 -132 -77 -42 -6 -48 -4 -87 31 -22 21 -41 43 -41 50 0 6 -9 23 -20 36 -32
39 -34 41 -79 109 -47 72 -107 113 -118 83 -7 -18 -10 -12 80 -128 80 -101
147 -199 147 -212 0 -16 -64 -76 -97 -89 -73 -31 -133 -9 -186 68 -30 43 -40
70 -48 124 -12 84 -16 100 -37 142 -16 31 -16 35 1 63 30 54 15 77 -29 44 -24
-18 -103 -20 -108 -2 -2 6 -9 31 -15 54 -18 67 -121 163 -174 163 -25 0 -57
-28 -57 -49 0 -7 23 -35 51 -63 42 -42 50 -54 47 -81 -2 -27 -8 -33 -31 -35
-37 -4 -87 45 -87 86 0 38 -42 113 -85 151 -43 37 -88 46 -140 28 -36 -12 -42
-20 -57 -66 -10 -29 -21 -58 -26 -65 -5 -6 -12 -24 -16 -40 -7 -27 -9 -28 -48
-22 -23 4 -47 11 -54 16 -6 6 -32 21 -57 34 -43 23 -130 87 -247 180 -48 38
-101 70 -220 133 -14 7 -35 13 -47 13 -13 0 -23 5 -23 10 0 6 -11 10 -25 10
-14 0 -41 9 -62 20 -26 14 -41 16 -54 9 -29 -15 -12 -37 44 -55 29 -9 61 -23
72 -30 11 -8 32 -14 47 -14 16 0 28 -4 28 -8 0 -5 18 -16 40 -26 22 -10 46
-23 53 -29 50 -48 284 -213 329 -234 15 -6 34 -25 42 -42 23 -44 54 -70 113
-97 43 -19 57 -32 77 -71 31 -59 40 -70 93 -111 26 -20 60 -36 95 -42 35 -7
59 -18 71 -33 52 -66 96 -92 193 -112 18 -3 40 -15 50 -26 26 -29 91 -59 142
-66 35 -5 48 -1 82 22 22 15 40 32 40 36 0 21 41 6 74 -27 36 -36 37 -37 104
-32 58 4 75 10 120 43 29 20 59 50 68 66 14 28 16 28 72 23 51 -6 63 -3 112
23 39 21 61 41 76 69 22 41 24 41 89 25 64 -17 130 11 173 73 23 33 27 49 26
102 -1 74 11 85 63 54 46 -27 65 -25 132 10 38 21 66 45 84 73 24 37 27 48 21
98 -6 52 -5 57 21 77 15 12 34 22 41 22 8 0 14 4 14 10 0 5 12 13 28 16 23 6
70 29 149 73 10 6 54 25 98 42 44 18 86 36 93 42 16 13 15 47 -2 47 -22 0 -80
-23 -94 -37 -7 -7 -20 -13 -27 -13 -8 0 -40 -13 -72 -30 -277 -140 -302 -147
-321 -92 -5 15 -34 59 -65 97 -31 38 -53 73 -51 77 3 4 22 8 42 8 55 0 137 34
137 56 0 23 -22 23 -150 4 -77 -11 -97 -11 -135 1 -34 10 -45 19 -45 34 0 18
8 21 80 25 77 5 125 22 125 46 0 21 -13 23 -47 9 -21 -9 -68 -15 -114 -15 -93
0 -99 10 -44 72 43 46 60 81 52 102 -9 23 -41 7 -69 -34 -13 -19 -42 -48 -66
-64 l-42 -30 -42 22 c-24 12 -69 48 -100 80 -32 32 -74 67 -93 78 -19 10 -35
22 -35 26 0 5 -6 8 -12 8 -7 1 -31 9 -53 20 -22 11 -52 19 -66 20 -31 0 -79
41 -79 67 0 10 11 39 25 65 30 56 30 64 8 73 -20 7 -63 -38 -63 -65 0 -34 -30
-60 -69 -60 -51 0 -99 18 -112 41 -17 32 -36 22 -48 -26 -19 -75 -151 -193
-255 -228 -64 -22 -98 -21 -126 1 l-22 18 31 26 c17 15 31 31 31 37 0 5 6 14
13 18 6 4 29 33 50 64 43 64 43 104 2 115 -29 7 -38 29 -24 55 11 21 86 79
101 79 5 0 34 -12 64 -26 31 -14 57 -24 60 -21 3 2 -5 20 -16 40 -24 40 -17
47 46 47 18 0 74 14 124 30 50 17 103 30 118 30 34 0 121 -30 186 -65 63 -33
153 -65 187 -65 15 0 40 -7 55 -15 16 -8 37 -15 46 -15 9 0 29 -6 45 -14 44
-23 100 -46 111 -46 5 0 29 -10 53 -23 56 -29 167 -77 180 -77 14 0 11 30 -6
47 -20 20 -8 34 61 79 29 18 59 40 67 49 9 8 39 27 67 41 l52 26 244 -3 c219
-3 246 -2 261 14 38 38 15 40 -477 38 -260 -1 -478 -5 -486 -8 -8 -3 -14 -15
-12 -27 3 -21 6 -21 181 -17 206 4 210 1 99 -71 -74 -47 -117 -68 -139 -68
-14 0 -115 37 -180 66 -17 8 -37 14 -45 14 -7 0 -22 7 -32 15 -11 8 -28 15
-38 15 -10 0 -26 4 -36 9 -9 5 -42 17 -72 26 -30 9 -82 29 -115 45 -153 72
-157 74 -250 76 -49 2 -99 0 -110 -3z m-692 -1179 c18 -8 43 -29 57 -46 20
-26 25 -43 25 -97 0 -59 2 -66 20 -66 11 0 36 -17 57 -38 57 -59 96 -47 143
44 l18 37 -51 59 c-29 33 -52 65 -52 71 0 42 85 -31 120 -102 26 -55 25 -90
-5 -151 -13 -27 -25 -57 -25 -66 0 -9 -7 -29 -15 -46 -8 -16 -18 -54 -22 -84
-8 -50 -10 -54 -36 -57 -54 -6 -136 73 -122 118 3 10 -3 39 -15 64 -11 25 -20
58 -20 75 0 16 -5 33 -10 36 -18 11 -32 -48 -26 -107 5 -50 3 -58 -14 -63 -25
-8 -60 11 -60 33 0 9 -13 24 -28 33 -15 9 -45 37 -67 63 -29 36 -39 58 -43 96
-4 41 -1 50 17 62 16 10 21 23 21 59 0 39 3 48 21 52 22 6 69 -18 69 -34 0 -5
5 -9 11 -9 38 0 51 -76 18 -106 -20 -18 -22 -18 -51 -1 -63 36 -78 10 -27 -48
30 -34 60 -43 87 -27 21 14 52 84 52 119 0 28 -8 38 -50 70 -27 20 -50 45 -50
55 0 22 13 23 53 2z m470 -269 c10 -7 28 -30 39 -51 18 -33 20 -52 16 -161 -3
-112 -1 -123 15 -123 9 0 17 -4 17 -10 0 -11 -12 -13 -49 -10 -13 1 -27 -4
-31 -11 -12 -19 -96 8 -131 43 -27 28 -29 35 -29 109 0 52 4 79 11 79 6 0 29
-16 51 -35 38 -35 65 -39 92 -15 18 17 19 96 1 124 -22 34 -35 25 -35 -25 0
-32 -4 -39 -19 -39 -23 0 -61 44 -61 70 0 26 25 42 54 34 22 -5 26 -3 26 15 0
24 8 26 33 6z"/>
<path d="M11275 9444 c-103 -35 -146 -49 -250 -79 -33 -10 -70 -22 -82 -28
-12 -5 -39 -13 -60 -16 -51 -8 -52 -23 -9 -167 19 -66 40 -138 46 -161 12 -49
20 -56 54 -47 32 8 39 29 22 67 -30 67 -78 229 -70 236 22 18 185 64 194 55 6
-6 22 -59 38 -120 l27 -109 33 -3 c23 -2 34 2 38 13 4 9 -12 66 -35 127 -43
116 -43 138 1 138 11 0 42 8 69 17 36 13 54 15 66 7 11 -6 29 -57 50 -134 18
-68 38 -127 45 -131 11 -7 45 -3 56 6 10 9 -1 56 -42 180 -25 76 -46 147 -46
156 0 15 -21 31 -38 28 -4 -1 -52 -16 -107 -35z"/>
<path d="M1966 9125 c-3 -9 -6 -27 -6 -40 0 -13 -6 -50 -14 -82 -35 -146 -48
-212 -42 -221 6 -10 41 -19 171 -47 44 -9 105 -23 135 -30 196 -46 250 -57
264 -52 8 3 20 31 27 64 7 32 25 110 41 173 27 108 27 116 11 127 -52 39 -68
5 -102 -219 -4 -26 -10 -51 -14 -54 -6 -7 -107 9 -169 26 -41 12 -43 17 -28
70 35 116 49 181 44 194 -4 10 -19 16 -40 16 -39 0 -37 5 -60 -170 -12 -85
-10 -83 -62 -75 -57 8 -113 22 -130 33 -10 7 -6 34 18 130 38 146 37 166 -6
170 -22 2 -33 -2 -38 -13z"/>
<path d="M11499 8966 c-4 -4 -93 -23 -369 -77 -36 -7 -85 -15 -110 -18 -41 -5
-45 -9 -48 -36 -2 -16 3 -66 13 -110 16 -81 29 -144 40 -202 8 -38 18 -47 45
-38 30 10 33 38 10 132 -39 167 -39 163 -23 179 8 7 31 14 51 14 20 0 56 7 80
17 58 22 70 9 82 -88 11 -90 25 -148 39 -162 7 -7 18 -5 36 7 29 19 29 34 -1
123 -7 23 -15 65 -16 94 l-3 52 80 14 c43 7 85 11 92 9 7 -3 13 -20 13 -38 0
-18 7 -58 15 -88 8 -30 15 -73 15 -95 0 -46 14 -65 46 -65 33 0 47 22 34 55
-6 16 -15 53 -20 84 -5 31 -15 85 -21 121 -13 81 -29 114 -55 118 -11 2 -22 1
-25 -2z"/>
<path d="M8120 8952 c0 -4 -12 -13 -27 -20 -79 -34 -248 -131 -250 -143 -7
-35 12 -39 63 -15 27 14 75 35 107 47 59 24 172 114 161 130 -6 11 -54 12 -54
1z"/>
<path d="M6952 8842 c-62 -37 -86 -72 -64 -94 7 -7 22 -4 49 12 77 47 103 70
103 96 0 32 -13 30 -88 -14z"/>
<path d="M8293 8827 c-24 -24 -40 -33 -155 -90 -90 -44 -118 -62 -118 -76 0
-28 14 -33 47 -17 15 8 39 19 53 25 85 35 121 55 173 96 31 25 57 52 57 60 0
18 -40 19 -57 2z"/>
<path d="M6867 8600 c-14 -11 -34 -20 -45 -20 -24 0 -72 -37 -72 -56 0 -25 45
-27 91 -4 48 25 78 56 79 83 0 23 -21 22 -53 -3z"/>
<path d="M1861 8556 c-7 -8 -11 -34 -9 -57 l3 -42 110 -51 c190 -87 249 -113
290 -127 76 -25 88 -54 28 -64 -83 -14 -441 -109 -453 -121 -5 -5 -10 -29 -12
-53 -3 -44 -2 -45 32 -52 19 -5 107 -13 196 -18 88 -6 185 -15 214 -21 29 -5
77 -10 107 -10 l54 0 -3 38 c-3 37 -3 37 -58 44 -30 3 -118 7 -195 8 -159 3
-200 9 -200 30 0 11 33 22 120 41 66 15 156 37 200 49 44 12 93 25 109 29 20
4 32 15 39 34 15 47 16 47 -138 118 -38 17 -124 53 -190 79 -66 27 -121 53
-123 59 -5 16 89 14 201 -3 50 -8 131 -17 179 -21 l87 -6 7 25 c14 56 26 54
-318 76 -86 5 -176 14 -200 20 -57 13 -64 12 -77 -4z"/>
<path d="M11570 8440 c-19 -5 -140 -13 -269 -19 -129 -7 -238 -14 -242 -17
-11 -6 -11 -55 -1 -71 8 -12 121 -4 366 27 78 10 106 4 92 -19 -4 -5 -39 -32
-79 -58 -100 -67 -306 -216 -340 -247 -22 -20 -26 -31 -21 -53 10 -43 18 -47
68 -34 24 6 149 15 276 21 127 5 239 14 250 20 24 13 26 43 4 64 -17 17 -44
16 -256 -10 -135 -16 -185 -18 -192 -5 -4 5 33 35 81 66 47 32 120 83 161 114
41 31 84 63 96 71 76 52 96 73 96 100 0 30 -23 61 -43 59 -7 -1 -28 -5 -47 -9z"/>
<path d="M6657 8393 c-2 -5 -7 -20 -11 -34 -4 -18 -18 -32 -43 -44 -58 -26
-81 -66 -48 -79 15 -5 52 11 107 47 28 20 44 64 33 97 -6 20 -30 27 -38 13z"/>
<path d="M5150 7101 c-87 -19 -160 -89 -187 -180 -22 -76 -14 -212 17 -275 23
-49 84 -104 138 -126 45 -18 168 -16 213 4 44 18 119 102 119 133 0 24 -62 69
-80 58 -6 -3 -19 -24 -30 -46 -32 -62 -109 -85 -181 -55 -70 29 -99 87 -98
193 0 59 5 89 22 122 33 66 66 86 139 85 61 -1 62 -2 103 -48 l41 -48 37 22
c50 30 56 55 21 91 -15 16 -47 38 -70 49 -46 23 -149 33 -204 21z"/>
<path d="M5695 7094 c-6 -6 -17 -31 -24 -55 -7 -24 -18 -55 -23 -69 -6 -14
-34 -97 -63 -185 -30 -88 -64 -184 -77 -213 -26 -61 -20 -71 45 -70 41 0 61
20 71 68 2 14 7 37 11 53 l5 27 120 0 c132 0 140 -4 140 -68 0 -44 28 -72 75
-77 64 -6 73 5 51 62 -10 26 -25 66 -33 88 -7 22 -18 49 -22 60 -5 11 -17 45
-26 75 -17 53 -28 84 -59 168 -8 20 -21 60 -29 87 l-14 50 -68 5 c-44 3 -73 1
-80 -6z m105 -162 c6 -20 20 -67 32 -103 30 -93 26 -98 -69 -96 -72 2 -78 4
-81 24 -2 12 3 37 12 55 8 18 21 62 30 97 22 93 53 102 76 23z"/>
<path d="M6519 7098 c-15 -11 -16 -27 -8 -133 17 -219 16 -249 -4 -253 -11 -2
-23 8 -35 28 -9 18 -54 95 -99 172 -46 77 -83 143 -83 147 0 5 -8 16 -19 25
-14 13 -33 16 -82 14 l-64 -3 2 -30 c4 -61 2 -496 -3 -508 -8 -22 20 -48 58
-52 54 -7 66 15 57 107 -4 40 -10 125 -13 190 -4 93 -2 117 9 121 19 8 46 -20
79 -83 15 -30 65 -117 109 -192 l82 -138 57 0 c48 0 58 3 58 18 3 84 -2 567
-5 570 -11 12 -82 12 -96 0z"/>
<path d="M6713 7094 c-2 -7 -3 -29 -1 -50 l3 -39 86 4 c48 2 89 -1 91 -5 3 -5
2 -112 -2 -239 -3 -126 -4 -236 -2 -242 6 -18 69 -27 96 -15 l23 10 -5 239
c-4 195 -2 240 9 250 10 8 32 8 78 1 58 -9 66 -8 78 8 17 23 17 73 0 80 -7 2
-111 6 -231 7 -157 1 -220 -1 -223 -9z"/>
<path d="M7442 7100 l-164 -5 -1 -290 -2 -290 195 0 195 0 3 42 c3 34 -1 44
-18 53 -11 6 -28 9 -38 6 -29 -8 -220 -11 -228 -3 -13 13 -14 146 -1 154 7 5
64 8 126 8 l115 0 10 33 c15 52 2 57 -137 57 l-122 0 -3 60 c-3 84 2 89 90 87
40 -1 97 -5 126 -8 63 -8 82 5 82 52 0 28 -5 36 -26 44 -14 6 -28 9 -32 8 -4
-1 -81 -5 -170 -8z"/>
<path d="M7947 7100 l-169 -5 1 -282 c0 -156 0 -288 1 -293 0 -7 68 -9 198 -8
l197 3 3 42 c4 57 -8 61 -148 53 -64 -4 -123 -3 -133 2 -15 8 -17 20 -15 86
l3 77 119 -3 c130 -4 136 -2 136 54 0 19 -6 34 -15 38 -8 3 -67 2 -130 -1
l-116 -6 3 74 3 74 140 0 139 0 8 40 c7 32 6 42 -9 52 -9 7 -24 12 -32 11 -9
-1 -92 -5 -184 -8z"/>
<path d="M8298 7103 c-17 -4 -18 -27 -18 -298 l0 -294 47 -7 c56 -8 75 10 68
65 -12 98 -15 350 -4 356 15 10 49 -29 78 -90 14 -27 55 -100 93 -162 37 -61
68 -116 68 -121 0 -25 39 -43 90 -40 l52 3 2 293 1 292 -32 6 c-18 3 -44 3
-58 0 -29 -7 -30 -19 -16 -241 5 -71 6 -136 4 -142 -9 -22 -33 -14 -46 15 -6
15 -49 89 -94 165 -46 76 -83 141 -83 145 0 4 -8 17 -18 28 -17 21 -94 36
-134 27z"/>
<path d="M3507 6133 c-4 -3 -7 -138 -7 -299 0 -280 1 -293 19 -299 11 -3 31
-3 46 1 25 6 26 9 21 53 -12 100 -18 411 -8 411 15 0 29 -22 41 -65 16 -59 66
-212 91 -275 12 -30 25 -68 29 -85 6 -28 10 -30 51 -30 l45 0 21 60 c17 46
106 318 129 393 3 6 9 12 15 12 8 0 11 -70 9 -232 -1 -201 0 -234 14 -242 10
-6 23 -6 37 0 22 10 22 10 21 299 -1 159 -4 292 -7 297 -3 4 -25 8 -50 8 -40
0 -46 -3 -59 -32 -20 -48 -76 -207 -115 -328 -18 -58 -39 -111 -46 -119 -14
-15 -34 -7 -34 15 0 8 -9 40 -19 72 -54 156 -131 374 -136 383 -7 10 -98 13
-108 2z"/>
<path d="M4257 6133 c-4 -3 -7 -138 -7 -299 l0 -292 183 -4 c100 -2 188 -2
195 0 20 7 15 62 -5 63 -10 1 -79 2 -153 3 l-135 1 -3 103 c-2 77 0 102 10
103 7 0 66 0 131 -1 l117 -1 0 35 c0 19 -3 37 -8 39 -4 3 -57 2 -117 -2 -66
-5 -115 -4 -122 2 -9 6 -13 39 -13 98 0 64 3 89 13 90 6 0 71 0 143 -1 140 -1
163 6 149 50 -6 19 -14 20 -189 20 -100 0 -186 -3 -189 -7z"/>
<path d="M4800 6116 c-64 -42 -75 -62 -75 -130 0 -45 5 -68 20 -88 23 -32 132
-88 173 -88 49 -1 110 -36 128 -74 15 -29 15 -39 4 -66 -20 -49 -55 -70 -117
-70 -62 0 -121 26 -147 64 -20 31 -46 33 -70 7 -27 -29 -12 -58 52 -99 55 -36
60 -37 152 -37 81 0 100 3 131 23 57 35 74 67 74 142 0 107 -46 151 -193 186
-62 14 -90 26 -109 46 -37 38 -36 84 3 115 56 45 133 41 204 -12 42 -31 46
-31 65 -1 21 32 11 51 -42 81 -39 22 -57 25 -132 24 -73 0 -91 -4 -121 -23z"/>
<path d="M5380 6119 c-52 -28 -98 -76 -123 -128 -18 -38 -22 -63 -22 -151 0
-148 31 -213 130 -278 36 -24 49 -27 135 -27 97 0 125 9 170 56 59 61 69 90
41 118 -29 29 -36 27 -65 -23 -34 -58 -80 -86 -140 -86 -122 0 -196 89 -196
234 0 145 74 237 190 239 59 1 107 -22 143 -67 25 -32 30 -34 52 -24 51 23 14
92 -74 141 -46 24 -192 22 -241 -4z"/>
<path d="M5839 5855 c-1 -157 -2 -291 -3 -297 -1 -10 44 -14 179 -18 99 -3
188 -4 198 -2 20 5 24 47 5 58 -7 5 -78 8 -158 8 l-145 1 -2 97 c-1 57 3 100
8 104 6 3 64 5 130 5 129 -2 138 2 125 53 -6 23 -7 23 -133 22 l-128 -1 -3 84
c-2 46 2 89 7 94 6 6 68 9 150 8 148 -2 158 1 147 45 l-6 24 -185 0 -185 0 -1
-285z"/>
<path d="M6658 6116 c-87 -52 -121 -105 -139 -216 -18 -121 13 -242 78 -301
63 -57 82 -64 183 -64 87 0 99 2 137 28 43 27 93 93 93 121 0 22 -40 47 -58
37 -9 -5 -23 -24 -31 -42 -50 -105 -217 -105 -288 -1 -60 90 -50 265 20 340
71 76 220 71 266 -9 17 -30 39 -36 71 -19 38 20 -11 95 -84 131 -59 28 -197
25 -248 -5z"/>
<path d="M7263 6128 c-9 -15 -46 -119 -108 -306 -24 -72 -56 -162 -71 -198
-29 -73 -27 -94 11 -94 35 0 61 30 69 81 13 83 19 86 148 86 62 1 118 -4 125
-9 7 -5 17 -34 23 -65 15 -69 41 -97 83 -89 40 8 40 8 23 42 -8 16 -22 49 -31
74 -10 25 -21 54 -26 65 -5 11 -35 101 -67 201 -76 231 -72 224 -127 224 -24
0 -47 -6 -52 -12z m79 -119 c9 -50 33 -129 52 -173 31 -74 28 -76 -80 -76
l-96 0 5 33 c5 34 49 168 73 225 18 41 37 37 46 -9z"/>
<path d="M7678 6133 c-2 -5 -5 -139 -7 -299 l-2 -291 23 -6 c13 -4 34 -4 46 0
25 6 24 -22 6 361 -7 157 3 153 118 -43 38 -66 84 -142 102 -170 18 -27 44
-70 58 -95 23 -42 28 -45 69 -48 l44 -3 0 298 0 298 -37 3 -38 3 0 -225 c0
-133 -4 -227 -10 -231 -5 -3 -21 18 -36 47 -25 51 -81 143 -178 293 -75 117
-73 115 -116 115 -21 0 -40 -3 -42 -7z"/>
<path d="M8237 6119 c-12 -44 -1 -49 100 -49 l96 0 -5 -264 -4 -265 22 -5 c12
-3 32 -2 44 2 22 8 22 10 19 223 -1 118 -3 234 -3 259 l-1 45 92 3 c79 2 93 5
98 21 3 10 3 26 -1 35 -5 14 -32 16 -229 16 -218 0 -223 0 -228 -21z"/>
<path d="M8790 6133 c0 -5 -1 -139 -3 -300 l-2 -291 185 -4 c201 -4 218 -1
201 43 l-9 25 -146 -4 c-80 -3 -146 -1 -146 4 -4 114 -3 195 2 199 4 4 61 7
129 8 104 2 123 5 133 19 8 14 6 22 -9 37 -18 18 -29 19 -128 13 -60 -4 -113
-4 -120 0 -10 6 -12 176 -2 186 2 2 68 4 147 5 l143 2 0 30 0 30 -187 3 c-104
1 -188 -1 -188 -5z"/>
<path d="M9296 6132 c-3 -5 -6 -139 -7 -298 l-1 -289 178 -5 c176 -6 214 -2
214 23 -1 37 -16 41 -167 42 l-148 0 -3 103 -3 102 136 0 135 0 0 35 c0 41 10
38 -145 39 l-120 1 0 90 0 90 141 3 c151 3 168 8 157 50 -5 22 -8 22 -184 22
-98 0 -180 -4 -183 -8z"/>
<path d="M9796 6132 c-3 -5 -6 -139 -6 -298 -2 -273 -1 -289 17 -297 28 -12
76 9 69 31 -11 39 -19 442 -8 442 10 0 52 -51 52 -63 0 -3 24 -44 53 -92 28
-47 57 -93 62 -103 6 -9 27 -43 47 -74 20 -31 46 -75 58 -97 19 -39 23 -41 65
-41 l45 0 0 301 0 300 -42 -3 -43 -3 3 -130 c1 -71 5 -169 8 -217 6 -84 5 -88
-14 -88 -15 0 -28 15 -46 53 -14 28 -35 66 -46 82 -11 17 -23 37 -27 45 -5 8
-38 60 -74 115 -36 55 -71 110 -78 123 -9 17 -20 22 -51 22 -21 0 -41 -4 -44
-8z"/>
<path d="M2347 5503 c-11 -10 -8 -51 3 -58 13 -8 1067 -8 1080 0 14 8 12 39
-2 53 -9 9 -143 12 -543 12 -293 0 -535 -3 -538 -7z"/>
<path d="M10324 5484 c-4 -14 -2 -30 3 -35 13 -13 1072 -14 1085 -1 5 5 8 20
6 33 l-3 24 -542 3 -543 2 -6 -26z"/>
</g>
</svg>
