<?xml version="1.0" encoding="UTF-8" standalone="no"?>
<!DOCTYPE svg PUBLIC "-//W3C//DTD SVG 1.1//EN" "http://www.w3.org/Graphics/SVG/1.1/DTD/svg11.dtd">
<!-- Created with Vectornator (http://vectornator.io/) -->
<svg height="100%" stroke-miterlimit="10" style="fill-rule:nonzero;clip-rule:evenodd;stroke-linecap:round;stroke-linejoin:round;" version="1.1" viewBox="0 0 300 300" width="100%" xml:space="preserve" xmlns="http://www.w3.org/2000/svg" xmlns:vectornator="http://vectornator.io" xmlns:xlink="http://www.w3.org/1999/xlink">
<defs/>
<g id="Untitled" vectornator:layerName="Untitled">
<g opacity="1" vectornator:layerName="g">
<path d="M145 55C145 59 145.4 62 146 62C146.6 62 147 60.6 147 59C147 57.2 147.5 56 148.3 56C150.2 56 152 58.1 152 60.2C152 61.2 152.5 62 153 62C154.3 62 154.3 60.8 153 57.6C152.4 56 152.4 54.9 153 54.5C154.7 53.5 154.1 50.1 152.1 49C151 48.5 149 48 147.6 48C145.1 48 145 48.2 145 55ZM151.8 52.2C152.1 53.5 151.5 54 149.6 54C147.6 54 147 53.5 147 51.9C147 50.4 147.5 49.9 149.2 50.2C150.5 50.4 151.6 51.3 151.8 52.2Z" fill="#000000" fill-rule="nonzero" opacity="1" stroke="none" vectornator:layerName="path"/>
<path d="M157.6 48.7C156.6 49.7 156.9 62 157.9 62C158.4 62 159 59 159.2 55.4C159.5 49.1 159.1 47.3 157.6 48.7Z" fill="#000000" fill-rule="nonzero" opacity="1" stroke="none" vectornator:layerName="path"/>
<path d="M134.4 53.6C134.7 56.2 135 59.3 135 60.6C135 61.9 135.5 63 136 63C136.6 63 137 61.6 137 60C137 57.5 137.4 57 139.5 57C140.9 57 142 56.5 142 56C142 55.4 140.7 55 139 55C136.7 55 136 54.6 136 53C136 51.5 136.7 51 138.4 51C139.8 51 141.2 50.5 141.5 50C141.9 49.4 140.5 49 137.9 49L133.7 49L134.4 53.6Z" fill="#000000" fill-rule="nonzero" opacity="1" stroke="none" vectornator:layerName="path"/>
<path d="M163.5 50C163.4 50.3 162.9 53.3 162.5 56.7C161.9 62.4 162 63 163.7 63C164.7 63 166.5 63.3 167.8 63.6C169 64 170 63.8 170 63.2C170 62.6 168.8 62 167.3 61.8C165.2 61.6 164.4 60.9 164.2 59.1C163.9 57 164.1 56.8 166.9 57.2C170.6 57.7 171.1 56.5 167.5 55.6C165.9 55.2 165 54.3 165 53C165 51.4 165.5 51.2 168.5 51.7C170.6 52 172 51.8 172 51.2C172 50.2 164.1 49 163.5 50Z" fill="#000000" fill-rule="nonzero" opacity="1" stroke="none" vectornator:layerName="path"/>
<path d="M120.8 52.2C116.7 53.3 115.6 55.1 119.2 54.7C121.1 54.5 121.6 55.3 122.8 60.3C123.6 63.5 124.6 65.8 125.1 65.3C125.6 64.8 125.3 62.3 124.5 59.6C122.6 53.3 122.6 53 125 53C126.1 53 127 52.5 127 52C127 50.8 125.8 50.9 120.8 52.2Z" fill="#000000" fill-rule="nonzero" opacity="1" stroke="none" vectornator:layerName="path"/>
<path d="M173.6 56.8C171.8 63.4 171.6 65.4 172.9 64.6C173.4 64.3 174.1 62.3 174.5 60.3C175.6 54.2 176.3 54.3 178 60.5C178.9 63.7 180.1 66.5 180.6 66.7C181.2 66.9 182.2 64.7 182.9 61.8C183.7 58.9 184.5 55.9 184.7 55.2C185 54.6 184.8 54 184.2 54C183.7 54 182.7 56.1 182 58.7L180.7 63.5L179.3 58.5C178.5 55.7 177.7 52.9 177.5 52.2C176.6 49.6 175.2 51.2 173.6 56.8Z" fill="#000000" fill-rule="nonzero" opacity="1" stroke="none" vectornator:layerName="path"/>
<path d="M110.2 55.8C108.4 56.6 107.1 57.6 107.2 57.9C107.4 58.2 108.4 60.9 109.5 63.7C110.6 66.6 112 69 112.6 69C114.8 69 120 66.8 120 65.8C120 65 118.2 65.2 114.3 66.7C113.7 67 112.7 66.3 112.1 65.2C111.2 63.4 111.5 63 114.3 62C116 61.3 117 60.6 116.3 60.3C115.6 60.1 114.2 60.4 113.1 60.9C111.4 61.8 110.9 61.7 110 60C109 58.2 109.3 57.8 111.9 56.9C113.6 56.3 115 55.4 115 54.9C115 53.7 114.1 53.8 110.2 55.8Z" fill="#000000" fill-rule="nonzero" opacity="1" stroke="none" vectornator:layerName="path"/>
<path d="M186.7 61.7C185.4 64.9 184.6 67.9 185 68.3C185.4 68.8 187.5 69.4 189.6 69.7C192.6 70.1 193.9 69.8 195.1 68.3C198.4 64.7 198.4 62.2 195.1 59C193.5 57.3 191.5 56 190.7 56C189.9 56 188.1 58.6 186.7 61.7ZM192.9 59C195.5 60.3 196.1 62.6 194.8 65.5C193.5 68.3 192 69.1 189.1 68.3C186.6 67.7 186.5 67.2 188.6 62C190.4 57.6 190.4 57.6 192.9 59Z" fill="#000000" fill-rule="nonzero" opacity="1" stroke="none" vectornator:layerName="path"/>
<path d="M101.3 63.2L100.3 67.5L99.2 64.7C98.2 62.4 96 60.9 96 62.5C96 64 102.9 75 103.4 74.2C103.7 73.7 103.3 72.4 102.5 71.4C100.2 68.4 100.7 67.9 104.6 69.5C108.7 71.2 110 71.4 110 70.2C110 69.7 108.2 68.8 105.9 68.1C102.9 67.2 102 66.5 102.4 65.3C103.8 61.8 104.2 59 103.3 59C102.7 59 101.8 60.9 101.3 63.2Z" fill="#000000" fill-rule="nonzero" opacity="1" stroke="none" vectornator:layerName="path"/>
<path d="M199.5 67.2C197.9 70.1 196.4 72.8 196.2 73.1C195.7 74.2 202.9 78 203.5 77C203.8 76.4 203 75.5 201.6 74.8C198.4 73.4 198.4 72.4 201.5 67.8C202.9 65.8 204 63.6 204 63.1C204 60.7 202.3 62.3 199.5 67.2Z" fill="#000000" fill-rule="nonzero" opacity="1" stroke="none" vectornator:layerName="path"/>
<path d="M87.3 68.6C85.7 71.1 85.7 71.4 87.6 74.9C89.7 78.8 93.2 80 97 78C99 76.9 99.9 72 98 72C97.5 72 97 72.9 97 74C97 75 96.1 76.4 95 77C93.3 77.9 92.5 77.6 90.5 75.6C89.1 74.2 88 72.4 88 71.6C88 69.7 91.8 67 93.6 67.7C94.4 68 95 67.7 95 67.1C95 66.5 93.7 66 92 66C89.9 66 88.5 66.8 87.3 68.6Z" fill="#000000" fill-rule="nonzero" opacity="1" stroke="none" vectornator:layerName="path"/>
<path d="M210 71C210 73.2 209.3 76.2 208.4 77.6C206.3 80.7 207.5 82.2 209.6 79.1C210.5 77.9 212.9 76.2 215.1 75.3C217.2 74.5 219 73.4 219 72.9C219 71.7 218.4 71.8 214.9 73.6L211.8 75.1L212.2 71.4C212.4 69.1 212 67.5 211.2 67.2C210.4 67 210 68.1 210 71Z" fill="#000000" fill-rule="nonzero" opacity="1" stroke="none" vectornator:layerName="path"/>
<path d="M76.7 76.8C74.4 79.3 74.6 82.2 77.1 85.4C80.7 89.9 88 87.9 88 82.3C88 76.5 80.3 72.8 76.7 76.8ZM84.4 78.9C86.8 81.6 86.1 85.4 83.2 85.8C79.1 86.4 75 80.3 77.7 77.7C79 76.3 82.7 77 84.4 78.9Z" fill="#000000" fill-rule="nonzero" opacity="1" stroke="none" vectornator:layerName="path"/>
<path d="M220.4 82.3C216 86.2 217.4 93 222.6 93C223.9 93 225 92.6 225 92C225 91.5 224.4 91.3 223.7 91.6C223 91.8 221.5 91.1 220.5 90C218.7 88 218.7 87.9 220.7 85.2C221.8 83.7 223.5 82.4 224.4 82.2C226.6 81.7 229 83.8 229 86.1C229 87.2 229.5 88 230 88C231.7 88 231.1 84.1 229 82C226.4 79.4 223.7 79.5 220.4 82.3Z" fill="#000000" fill-rule="nonzero" opacity="1" stroke="none" vectornator:layerName="path"/>
<path d="M67 86.5L64.7 89L67.1 91.6C70.4 95.1 75 98.4 75.7 97.6C76 97.3 75.3 96.2 74 95.2C72 93.6 71.9 93.3 73.4 92.1C76.5 89.5 74.8 84 71 84C70.1 84 68.3 85.1 67 86.5ZM72.7 88C73.2 90.8 71.5 92.3 69.1 91.1C67.3 90.1 67.2 89.6 68.1 87.9C69.3 85.6 72.3 85.7 72.7 88Z" fill="#000000" fill-rule="nonzero" opacity="1" stroke="none" vectornator:layerName="path"/>
<path d="M228.7 93.2C223.2 95.1 221.5 97.2 226.2 96.3C229.2 95.8 231.7 99.4 229.9 101.6C229.3 102.4 229 103.3 229.4 103.7C230.1 104.5 229.9 104.8 234.3 98.1C239.4 90.4 238.6 89.7 228.7 93.2ZM235 93.7C234.9 95.4 232.1 98.2 231.1 97.5C229.4 96.5 229.8 94.2 231.8 93.7C234.6 93 235 93 235 93.7Z" fill="#000000" fill-rule="nonzero" opacity="1" stroke="none" vectornator:layerName="path"/>
<path d="M57.7 98.9C56.8 100.5 56 102.3 56 102.8C56 103.4 58.3 105.3 61.2 107L66.4 110.2L68.7 107.4C71.5 103.8 71.9 100.4 69 103.8C68 105 67 106.6 66.7 107.3C66.4 108.2 65.8 108.1 64.5 106.9C63.2 105.6 63 104.8 63.9 103.2C65.2 100.7 65.3 100 64.2 100C63.7 100 62.8 101.2 62.1 102.7C61 105.1 60.8 105.2 59.3 103.8C57.9 102.3 57.9 102 59.4 99.9C61.1 97.3 61.4 96 60.2 96C59.8 96 58.7 97.3 57.7 98.9Z" fill="#000000" fill-rule="nonzero" opacity="1" stroke="none" vectornator:layerName="path"/>
<path d="M236.3 102.2C233.4 103.8 231 105.6 231 106.1C231 107.4 231.7 107.2 236 104.5C238.2 103.1 240.2 102 240.5 102C240.8 102 239.6 104.5 237.9 107.5C236.2 110.6 235 113.4 235.3 113.7C236.1 114.5 246.3 108.6 246.8 107C247.1 106.3 245.1 107 242.5 108.5L237.8 111.3L240.4 106.2C244.6 98 244.2 97.6 236.3 102.2Z" fill="#000000" fill-rule="nonzero" opacity="1" stroke="none" vectornator:layerName="path"/>
<path d="M52.6 108.6C50.5 110.7 50.6 115.3 52.8 117.2C57.5 121.4 64 119.6 64 114C64 111 62.6 109.2 61.6 110.9C61.2 111.4 61.4 112.1 61.9 112.4C63.3 113.3 62 116.9 60 117.5C57.8 118.2 53.3 116.2 52.6 114.3C51.9 112.6 53.6 109 55 109C55.6 109 56 108.5 56 108C56 106.5 54.4 106.8 52.6 108.6Z" fill="#000000" fill-rule="nonzero" opacity="1" stroke="none" vectornator:layerName="path"/>
<path d="M248 113C248.9 114.7 248.6 115.1 245.7 116.4C243.8 117.1 241.4 118.1 240.2 118.4C238 119.1 237.1 121 239 121C239.5 121 242 120 244.6 118.8C249.1 116.6 249.2 116.6 250.6 118.4C251.3 119.5 252.2 120.2 252.4 119.9C253.2 119.1 249.2 111 248 111C247.2 111 247.2 111.6 248 113Z" fill="#000000" fill-rule="nonzero" opacity="1" stroke="none" vectornator:layerName="path"/>
<path d="M47 121.4C45.4 123.4 46.1 127 48.3 128.4C49.8 129.3 50.6 129 52.8 126.4C55.5 123.3 58 122.9 58 125.5C58 126.3 57.3 127.6 56.4 128.5C54.4 130.4 55.3 131.8 57.4 130.1C59.6 128.2 60.3 125.1 59 123.5C57.1 121.2 53.4 121.7 51.6 124.5C50.7 125.9 49.5 127 49 127C48.4 127 48 125.9 48 124.5C48 123.1 48.5 122 49 122C49.6 122 50 121.5 50 121C50 119.5 48.4 119.8 47 121.4Z" fill="#000000" fill-rule="nonzero" opacity="1" stroke="none" vectornator:layerName="path"/>
<path d="M145.5 122.2C140 124.1 138 125.3 137.4 127.2C136.6 129.7 132.9 129.5 126.9 126.5C120.3 123.1 117 121.9 117 122.8C117 124 131.3 130 134.8 130.2C137.9 130.4 139.5 132 136.5 132C134.4 132 134.6 133.7 137 135C139.1 136.1 141.8 135.2 145.2 132.3C148 129.9 153.1 131.5 160.1 137.1C170.3 145.1 173.4 149.9 169.4 151.4C167.3 152.2 165 150.3 165 147.9C165 146.8 164.5 146.3 163.6 146.6C162.9 146.9 161.5 146 160.6 144.6C159.7 143.1 158.5 142 157.9 142C157.3 142 158.2 143.6 160 145.6C164.4 150.7 165.6 153.6 164 155.5C162.6 157.1 159.5 157.6 160.5 156C160.8 155.4 160.5 155 159.8 155C159.1 155 157.5 153.4 156.2 151.5C155 149.6 153.5 148 153 148C151.5 148 151.8 148.6 155 152.2C158.4 155.9 158.5 158.3 155.3 158.8C153.8 159 152.7 158.2 151.4 156.1C150.4 154.4 149 152.8 148.2 152.5C147.4 152.2 148 153.6 149.5 155.5C152.4 159.4 152.2 162 149.1 162C146.7 162 145 159.2 144.7 155C144.6 153.2 143.9 152 143.1 152C142.4 152 140.9 150.9 139.8 149.5C138 147.2 135.2 146.9 136.6 149.1C136.9 149.6 137.5 149.8 138 149.5C139.6 148.5 140.1 153 138.9 156.5C137.4 160.7 136.3 160.9 135 157.4C133.6 153.7 133.8 153 136.1 153.3C137.3 153.4 138.5 152.9 138.7 152.2C139 151.5 138.6 151.2 137.6 151.6C136.5 152 135.7 151.4 135.1 149.7C133.4 145.2 129.4 145.5 127.7 150.4C127.5 151 125.4 150.1 122.9 148.2C117.9 144.5 110.1 140.6 109.3 141.4C109 141.7 110 142.5 111.6 143.2C115.8 145 122.8 149.9 127.3 154.2C129.5 156.3 131.6 158 132 158C132.5 158 133.5 158.6 134.2 159.2C134.9 159.9 137.2 161.3 139.4 162.3C142.3 163.7 143.5 163.8 144.6 162.9C145.7 162 146.4 162.1 147.5 163C148.7 164 149.5 163.9 151.5 162.6C152.8 161.7 154.6 161 155.4 161C156.2 161 157.5 160.4 158.3 159.6C159 158.8 160.8 158 162.1 157.8C163.4 157.7 164.9 156.5 165.5 155.2C166 154 167.2 153 168.2 153C170.4 153 173 150.3 172.4 148.6C172.1 147.8 173.7 146.5 177 145.1C179.9 143.9 182 142.6 181.7 142.3C181.4 142.1 179 142.8 176.4 144L171.6 146.1L169.8 143.8C168.2 141.6 168.2 141.5 170.3 140.8C171.9 140.4 171.5 140.2 168.5 140C165.1 139.9 164.8 139.7 166.8 139C169.8 137.8 169.6 137.2 166.4 137.8C163.9 138.2 163.8 138.1 165 135.9C166 133.9 166 133.7 164.9 134.7C163.1 136.5 160.5 136.3 158.9 134.3C158.1 133.4 156.1 132.1 154.3 131.3C151.9 130.3 151.2 129.6 151.7 128.2C152.3 126.7 152.1 126.7 150.8 127.8C149.9 128.5 148.6 129 147.8 128.8C147.1 128.7 145.3 129.8 143.8 131.3C140.8 134.3 135.7 135.3 138.1 132.4C138.8 131.5 139.4 129.6 139.5 128.2C139.5 126 140 125.5 141.8 125.7C143.1 125.9 143.9 125.6 143.6 125.1C142.5 123.3 151 122.7 154.9 124.3C167.3 129.4 168.8 129.9 169.4 128.4C169.7 127.6 171.1 126.5 172.5 125.8C173.9 125.2 175 124.3 175 123.8C175 123.3 173.3 123.9 171.1 125.2L167.3 127.4L158.4 124.2C153.5 122.4 149.2 121 149 121.1C148.7 121.2 147.2 121.7 145.5 122.2ZM133.5 149C133.8 149.5 133.8 151.6 133.4 153.5C132.8 156.9 132.7 157 130.9 155.4C129 153.7 128.4 150 129.7 148.7C130.7 147.7 132.8 147.9 133.5 149ZM143.8 157.4C144.2 161 142.6 162.8 140.5 161C138.3 159.2 138.6 157.1 141 157.7C142.5 158.1 143 157.8 142.9 156.4C142.9 155.3 142.6 155 142.3 155.8C142.1 156.4 141.4 156.8 140.9 156.4C139.6 155.7 140.9 153.8 142.3 154.3C143 154.5 143.6 155.9 143.8 157.4Z" fill="#000000" fill-rule="nonzero" opacity="1" stroke="none" vectornator:layerName="path"/>
<path d="M246.1 124.6C243.7 125.3 241.5 126.2 241.3 126.4C240.5 127.2 243.1 134 244.2 134C244.8 134 245 133.4 244.7 132.7C242.9 128 243 127.2 245 126.7C246.6 126.3 247.4 126.9 248.5 129.3L250 132.5L249.5 128.7C249 125.4 249.2 125 251 125C252.5 125 253.2 125.8 253.7 128C254 129.6 254.6 131 255.1 131C256.3 131 256.2 130 254.9 126.1C253.7 122.7 252.8 122.5 246.1 124.6Z" fill="#000000" fill-rule="nonzero" opacity="1" stroke="none" vectornator:layerName="path"/>
<path d="M43.4 132.7C43.1 134.3 42.7 136.1 42.5 136.7C42.2 137.4 43.3 138.2 44.8 138.6C46.3 138.9 49.2 139.6 51.4 140.2C53.5 140.7 55.4 141 55.6 140.8C55.7 140.6 56.2 138.5 56.6 136.1C57.1 132.9 57 131.9 56.2 132.4C55.5 132.8 55 134.2 55 135.5C55 138.3 53.8 139.3 51.5 138.4C50.3 137.9 50.1 137 50.5 134.9C50.9 133.1 50.7 132 50.1 132C49.5 132 49 133.1 49 134.5C49 136.5 48.5 137 46.6 137C44.3 137 44.2 136.8 45.1 133.8C46.2 129.8 46.2 130 45 130C44.5 130 43.8 131.2 43.4 132.7Z" fill="#000000" fill-rule="nonzero" opacity="1" stroke="none" vectornator:layerName="path"/>
<path d="M177.8 135.6C176.2 136.4 175 137.3 175 137.5C175 138.7 178 137.8 180.1 136C182.9 133.7 181.6 133.5 177.8 135.6Z" fill="#000000" fill-rule="nonzero" opacity="1" stroke="none" vectornator:layerName="path"/>
<path d="M249.1 135.1C246.7 135.6 244.5 136.1 244.3 136.4C243.6 137.1 245.2 144 246 144C246.4 144 246.7 142.5 246.6 140.7C246.5 138.1 246.9 137.5 248.5 137.5C249.8 137.5 250.6 138.3 250.8 139.7C251 141 251.5 142 252 142C252.5 142 252.7 140.6 252.4 139C251.8 136.5 252.1 136 253.8 136C255.2 136 255.9 136.9 256.4 139C256.7 140.6 257.4 142 257.9 142C258.5 142 258.8 141.4 258.6 140.7C258.3 140.1 257.9 138.3 257.6 136.7C256.9 133.8 256.3 133.7 249.1 135.1Z" fill="#000000" fill-rule="nonzero" opacity="1" stroke="none" vectornator:layerName="path"/>
<path d="M181 139C179.1 140.1 178.1 140.9 178.8 141C180.2 141 186 138.2 186 137.5C186 136.6 184.5 137.1 181 139Z" fill="#000000" fill-rule="nonzero" opacity="1" stroke="none" vectornator:layerName="path"/>
<path d="M41 144.1C41 144.7 43.3 146.1 46 147.3C48.8 148.4 51 149.7 51 150.1C51 150.5 49.3 151.1 47.3 151.5C42.6 152.4 39.5 154 40.6 155C42 156.2 54 157.1 54 156C54 155.4 52.3 155 50.2 155C44.7 155 44.1 153.7 49.1 152.5C51.4 151.9 53.5 151 53.7 150.4C53.9 149.9 52.1 148.4 49.8 147.2L45.5 145L50.3 145.4C55.6 145.8 56.7 144.6 51.9 143.6C47 142.6 41 142.9 41 144.1Z" fill="#000000" fill-rule="nonzero" opacity="1" stroke="none" vectornator:layerName="path"/>
<path d="M251.8 145.7C248.5 145.9 246 146.6 246 147.2C246 147.9 247.7 148.1 251 147.7C253.8 147.4 256 147.3 256 147.5C256 147.7 253.7 149.4 251 151.4C248.2 153.4 246.1 155.4 246.4 155.8C247.1 156.9 260 156 260 154.8C260 154.1 258.1 153.9 255 154.2C252.3 154.5 250 154.6 250 154.4C250 154.2 252 152.7 254.5 151C257 149.3 259 147.3 259 146.5C259 145.7 258.7 145.1 258.3 145.2C257.8 145.3 254.9 145.5 251.8 145.7Z" fill="#000000" fill-rule="nonzero" opacity="1" stroke="none" vectornator:layerName="path"/>
<path d="M112 177C108.3 180.7 110.7 189 115.6 189C118 189 121 187.1 121 185.5C121 183.7 120.5 183.6 118.1 185.2C115.3 186.9 113 185.5 113 182.2C113 178.4 115.2 176.5 117.9 177.9C120.5 179.3 121 179.3 121 177.6C121 174.5 114.9 174.1 112 177Z" fill="#000000" fill-rule="nonzero" opacity="1" stroke="none" vectornator:layerName="path"/>
<path d="M126.5 176.2C126.3 176.9 125.2 179.9 124.1 182.8C122.2 187.9 122.8 191 125 187C126.4 184.3 130.6 184.3 131.3 187C131.8 189.1 134 189.8 134 187.9C134 187.2 133 184.1 131.9 180.9C129.9 175.4 127.5 173.3 126.5 176.2Z" fill="#000000" fill-rule="nonzero" opacity="1" stroke="none" vectornator:layerName="path"/>
<path d="M136.2 181.7C136.6 189.7 138.7 191.7 139.2 184.3L139.5 179.5L142.3 184.3C143.9 187 145.6 189 146.2 188.8C146.7 188.6 147.1 188.1 147.1 187.7C147 187.3 147 184.3 147 181C147 177.7 146.6 175 146 175C145.5 175 145 177.1 145 179.7L144.9 184.5L142.2 179.8C140.6 176.9 138.8 175 137.7 175C136.1 175 135.9 175.8 136.2 181.7Z" fill="#000000" fill-rule="nonzero" opacity="1" stroke="none" vectornator:layerName="path"/>
<path d="M149.5 176C148.9 176.9 149.3 177 151.8 177C152.2 177 152.7 179.5 153 182.7C153.7 190.7 156 191.1 156 183.1C156 177.7 156.2 177 158 177C159.1 177 160 176.5 160 176C160 175.4 157.8 175 155.1 175C152.3 175 149.8 175.4 149.5 176Z" fill="#000000" fill-rule="nonzero" opacity="1" stroke="none" vectornator:layerName="path"/>
<path d="M162 181.3L162 187.7L165.7 188.3C169.5 188.9 171 188.5 171 186.9C171 186.4 169.4 186 167.5 186C165.1 186 164 185.5 164 184.5C164 183.5 165 183 167.1 183C169.1 183 170 182.6 169.7 181.7C169.5 181.1 168.2 180.5 166.9 180.5C165.4 180.5 164.5 179.9 164.5 179C164.5 178.1 165.4 177.5 167 177.5C171.4 177.5 170.7 175.5 166.3 175.2L162 174.9L162 181.3Z" fill="#000000" fill-rule="nonzero" opacity="1" stroke="none" vectornator:layerName="path"/>
<path d="M173 181.5L173 188L176 188.1C177.7 188.2 179.5 188.3 180.2 188.4C180.8 188.5 181.5 188 181.7 187.3C182 186.6 180.8 186 178.8 185.8C175 185.4 174.7 183.6 178.5 183.2C179.9 183 181 182.2 181 181.4C181 180.3 180.4 180.1 179 180.5C176.5 181.3 174.9 180.4 175.7 178.4C176 177.5 177.2 177 178.8 177.2C180.2 177.4 181.5 176.9 181.7 176.2C182 175.4 180.8 175 177.6 175L173 175L173 181.5Z" fill="#000000" fill-rule="nonzero" opacity="1" stroke="none" vectornator:layerName="path"/>
<path d="M184.2 181.7C184.5 188.8 186.6 190.7 186.4 183.7C186.4 181.7 186.7 180 187.1 180C187.5 180 189 182 190.4 184.5C191.9 187 193.5 189 194 189C194.6 189 195 185.8 195 182C195 178 194.6 175 194 175C193.5 175 193 177.1 193 179.7L193 184.5L190 179.7C185.6 172.7 183.8 173.3 184.2 181.7Z" fill="#000000" fill-rule="nonzero" opacity="1" stroke="none" vectornator:layerName="path"/>
<path d="M107.2 197.1C103.3 198.6 104.8 203.3 109.5 204.2C110.7 204.4 111.5 205.3 111.5 206.5C111.5 208.6 110 208.8 106.6 207.5C105.2 206.9 104.9 207.1 105.2 208.1C105.5 209 107.1 209.5 109.6 209.5C113.1 209.5 113.5 209.2 113.8 206.7C114.1 204.4 113.6 203.7 110.5 202.4C106.1 200.6 106.4 198.4 110.9 198.8C112.7 198.9 113.9 198.6 113.6 198.1C112.7 196.7 109.6 196.2 107.2 197.1Z" fill="#000000" fill-rule="nonzero" opacity="1" stroke="none" vectornator:layerName="path"/>
<path d="M119.9 197.4C116.8 199 115.5 203.2 117.2 206.7C118.3 209.1 119.1 209.5 122.5 209.5C125.6 209.5 126.6 209.1 126.8 207.7C127.2 205.9 127.1 205.9 124.5 207.6C121.8 209.4 121.7 209.3 119.9 207.1C117.5 204.2 117.5 202.8 119.9 199.9C121.6 197.8 122.1 197.7 124 198.8C126.3 200.2 127.6 199.8 126.6 198.2C125.6 196.6 122.3 196.2 119.9 197.4Z" fill="#000000" fill-rule="nonzero" opacity="1" stroke="none" vectornator:layerName="path"/>
<path d="M148.5 197.2C147.4 197.8 146.2 198.8 145.8 199.4C144.4 201.5 145 206.7 146.8 208.3C149.1 210.4 153.4 210.5 155 208.5C156.8 206.3 155.5 205.4 153.5 207.4C151.6 209.3 151.4 209.3 148.9 208C145.9 206.3 146.3 200.3 149.5 198.8C151.4 198 152.3 198 153.5 199C155.2 200.4 157 199.5 155.4 198.1C153.7 196.5 150.5 196.1 148.5 197.2Z" fill="#000000" fill-rule="nonzero" opacity="1" stroke="none" vectornator:layerName="path"/>
<path d="M78 203.5C78 210.9 79.9 212.6 80.1 205.2L80.2 200.5L81.8 205.2C82.6 207.9 83.9 210 84.5 210C85.1 210 86.4 207.9 87.2 205.2L88.8 200.5L88.9 205.2C89.1 212.6 91 210.9 91 203.5C91 198.4 90.7 197 89.5 197C88.7 197 88 197.6 87.9 198.2C87.9 198.9 87.1 201.3 86.1 203.5L84.3 207.5L82.6 202.2C80.1 194.7 78 195.2 78 203.5Z" fill="#000000" fill-rule="nonzero" opacity="1" stroke="none" vectornator:layerName="path"/>
<path d="M95 203.5L95 210L99 210C101.2 210 103 209.6 103 209.1C103 208.6 101.5 208.3 99.8 208.4C97.1 208.5 96.4 208.1 96.2 206.2C95.9 204.3 96.3 204 98.9 204C100.6 204 102 203.5 102 203C102 202.4 100.6 202 98.9 202C94.5 202 95.3 198.7 100 197.9L103.5 197.3L99.3 197.1L95 197L95 203.5Z" fill="#000000" fill-rule="nonzero" opacity="1" stroke="none" vectornator:layerName="path"/>
<path d="M130 203.5L130 210L134.6 210C137.2 210 138.9 209.6 138.5 209C138.2 208.5 136.6 208.3 135 208.7C132.3 209.2 132 209 132 206.6C132 204.4 132.4 204 135 204C136.7 204 138 203.5 138 203C138 202.4 136.7 202 135 202C132.7 202 132 201.5 132 200.1C132 198.6 132.8 198 135.8 197.7C139.2 197.4 139.1 197.3 134.8 197.2L130 197L130 203.5Z" fill="#000000" fill-rule="nonzero" opacity="1" stroke="none" vectornator:layerName="path"/>
<path d="M159.3 203.2C157.1 209.6 157.1 211.6 159.3 208.8C161.3 206.2 165.1 205.8 165.7 208.1C166 209.1 166.8 210 167.5 210C169.2 210 164.7 197.6 162.9 197.2C162 197.1 160.7 199.2 159.3 203.2ZM163.3 204.8C161.2 205.3 160.8 204.6 161.6 201.4L162.3 198.5L163.6 201.5C164.6 204 164.6 204.6 163.3 204.8Z" fill="#000000" fill-rule="nonzero" opacity="1" stroke="none" vectornator:layerName="path"/>
<path d="M171 203.5C171 207.7 171.4 210 172.1 210C172.9 210 173.1 208.4 172.6 205C172.2 202.2 172.1 200 172.4 200C172.6 200 174.2 202.2 176 205C177.8 207.7 179.6 210 180.1 210C180.6 210 181 207.1 181 203.5C181 199.8 180.6 197 180 197C179.5 197 179 199.1 179 201.7L179 206.4L176 201.7C174.4 199.1 172.6 197 172 197C171.4 197 171 199.7 171 203.5Z" fill="#000000" fill-rule="nonzero" opacity="1" stroke="none" vectornator:layerName="path"/>
<path d="M184.8 197.7C186.8 198.1 187 198.7 187 204.1C187 207.4 187.4 210 188 210C188.6 210 189 207.4 189 204.1C189 198.7 189.2 198.1 191.3 197.7C192.5 197.5 191 197.3 188 197.3C185 197.3 183.5 197.5 184.8 197.7Z" fill="#000000" fill-rule="nonzero" opacity="1" stroke="none" vectornator:layerName="path"/>
<path d="M195 203.5L195 210L199.5 210C202 210 204 209.6 204 209.1C204 208.6 202.5 208.3 200.8 208.4C198.1 208.5 197.4 208.1 197.2 206.2C196.9 204.3 197.3 204 199.9 204C201.6 204 203 203.5 203 203C203 202.4 201.7 202 200 202C197.7 202 197 201.5 197 200.1C197 198.6 197.8 198 200.8 197.7C204.2 197.4 204.1 197.3 199.8 197.2L195 197L195 203.5Z" fill="#000000" fill-rule="nonzero" opacity="1" stroke="none" vectornator:layerName="path"/>
<path d="M207 203.5L207 210L211 210C213.2 210 215 209.6 215 209.1C215 208.6 213.5 208.3 211.8 208.4C209.1 208.5 208.4 208.1 208.2 206.2C207.9 204.3 208.3 204 210.9 204C212.6 204 214 203.5 214 203C214 202.4 212.7 202 211 202C208.7 202 208 201.5 208 200.1C208 198.6 208.8 198 211.8 197.7L215.5 197.3L211.3 197.2L207 197L207 203.5Z" fill="#000000" fill-rule="nonzero" opacity="1" stroke="none" vectornator:layerName="path"/>
<path d="M218 203.5C218 207.3 218.4 210 219 210C219.7 210 219.8 208.2 219.4 205C219 202.2 219 200 219.3 200C219.6 200 221.2 202.2 223 205C224.8 207.7 226.6 210 227.1 210C227.6 210 228 207.1 228 203.5C228 199.8 227.6 197 227 197C226.5 197 226 199.1 226 201.7L226 206.5L223 201.7C221.3 199.1 219.5 197 219 197C218.4 197 218 199.8 218 203.5Z" fill="#000000" fill-rule="nonzero" opacity="1" stroke="none" vectornator:layerName="path"/>
<path d="M52.3 211.2C52.1 211.7 52.1 212 52.4 212C57.8 212.4 76.1 212 76.3 211.5C76.6 210.6 52.9 210.3 52.3 211.2Z" fill="#000000" fill-rule="nonzero" opacity="1" stroke="none" vectornator:layerName="path"/>
<path d="M230 211.5C230 212.6 252.1 212.6 253 211.5C253.3 211.2 248.2 210.8 241.7 210.7C234.5 210.6 230 210.9 230 211.5Z" fill="#000000" fill-rule="nonzero" opacity="1" stroke="none" vectornator:layerName="path"/>
</g>
</g>
</svg>
